<svg width="1503" height="252" viewBox="0 0 1503 252" fill="none" xmlns="http://www.w3.org/2000/svg">
<path d="M-54 0C96.1125 377.776 106.347 72.3086 221.206 157.898C336.065 243.488 756.835 -35.4165 869.42 184.461C982.004 404.338 1674 8.85411 1674 8.85411" stroke="#0A7DC8"/>
<rect width="1503" height="90" fill="#0A7DC8"/>
<ellipse cx="17" cy="103.5" rx="25" ry="20.5" fill="#0A7DC8"/>
<ellipse cx="24" cy="112.5" rx="25" ry="20.5" fill="#0A7DC8"/>
<ellipse cx="27" cy="117.5" rx="25" ry="20.5" fill="#0A7DC8"/>
<ellipse cx="29" cy="121.5" rx="25" ry="20.5" fill="#0A7DC8"/>
<ellipse cx="32" cy="126.5" rx="25" ry="20.5" fill="#0A7DC8"/>
<ellipse cx="36" cy="132.5" rx="25" ry="20.5" fill="#0A7DC8"/>
<ellipse cx="40" cy="138.5" rx="25" ry="20.5" fill="#0A7DC8"/>
<ellipse cx="42" cy="141.5" rx="25" ry="20.5" fill="#0A7DC8"/>
<ellipse cx="45" cy="145.5" rx="25" ry="20.5" fill="#0A7DC8"/>
<ellipse cx="47" cy="148.5" rx="25" ry="20.5" fill="#0A7DC8"/>
<ellipse cx="287.5" cy="98.5" rx="270.5" ry="34.5" fill="#0A7DC8"/>
<ellipse cx="1078" cy="152.5" rx="203" ry="71.5" fill="#0A7DC8"/>
<ellipse cx="1275.5" cy="118.5" rx="126.5" ry="50.5" fill="#0A7DC8"/>
<ellipse cx="918.5" cy="107.5" rx="100.5" ry="36.5" fill="#0A7DC8"/>
<ellipse cx="86.5" cy="134" rx="41.5" ry="37" fill="#0A7DC8"/>
<ellipse cx="289.5" cy="139.5" rx="91.5" ry="21.5" fill="#0A7DC8"/>
<ellipse cx="37.5" cy="160.5" rx="9.5" ry="6.5" fill="#0A7DC8"/>
<ellipse cx="39.5" cy="163.5" rx="9.5" ry="6.5" fill="#0A7DC8"/>
<ellipse cx="41.5" cy="165.5" rx="9.5" ry="6.5" fill="#0A7DC8"/>
<ellipse cx="43.5" cy="167.5" rx="9.5" ry="6.5" fill="#0A7DC8"/>
<ellipse cx="45.5" cy="169.5" rx="9.5" ry="6.5" fill="#0A7DC8"/>
<ellipse cx="47.5" cy="171.5" rx="9.5" ry="6.5" fill="#0A7DC8"/>
<ellipse cx="49.5" cy="173.5" rx="9.5" ry="6.5" fill="#0A7DC8"/>
<ellipse cx="51.5" cy="175.5" rx="9.5" ry="6.5" fill="#0A7DC8"/>
<ellipse cx="53.5" cy="177.5" rx="9.5" ry="6.5" fill="#0A7DC8"/>
<ellipse cx="56.5" cy="179.5" rx="9.5" ry="6.5" fill="#0A7DC8"/>
<ellipse cx="58.5" cy="181.5" rx="9.5" ry="6.5" fill="#0A7DC8"/>
<ellipse cx="61.5" cy="183.5" rx="9.5" ry="6.5" fill="#0A7DC8"/>
<ellipse cx="66.5" cy="185.5" rx="9.5" ry="6.5" fill="#0A7DC8"/>
<ellipse cx="69.5" cy="186.5" rx="9.5" ry="6.5" fill="#0A7DC8"/>
<ellipse cx="72.5" cy="187.5" rx="9.5" ry="6.5" fill="#0A7DC8"/>
<ellipse cx="77.5" cy="187.5" rx="9.5" ry="6.5" fill="#0A7DC8"/>
<ellipse cx="80.5" cy="187.5" rx="9.5" ry="6.5" fill="#0A7DC8"/>
<ellipse cx="84.5" cy="186.5" rx="9.5" ry="6.5" fill="#0A7DC8"/>
<ellipse cx="89.5" cy="184.5" rx="9.5" ry="6.5" fill="#0A7DC8"/>
<ellipse cx="94.5" cy="181.5" rx="9.5" ry="6.5" fill="#0A7DC8"/>
<ellipse cx="65.5" cy="168" rx="12.5" ry="10" fill="#0A7DC8"/>
<ellipse cx="79" cy="173.5" rx="15" ry="10.5" fill="#0A7DC8"/>
<ellipse cx="100" cy="172.5" rx="10" ry="9.5" fill="#0A7DC8"/>
<ellipse cx="100" cy="176.5" rx="9" ry="8.5" fill="#0A7DC8"/>
<ellipse cx="103" cy="174.5" rx="9" ry="8.5" fill="#0A7DC8"/>
<ellipse cx="111" cy="168.5" rx="9" ry="8.5" fill="#0A7DC8"/>
<ellipse cx="115" cy="165.5" rx="9" ry="8.5" fill="#0A7DC8"/>
<ellipse cx="119" cy="162.5" rx="9" ry="8.5" fill="#0A7DC8"/>
<ellipse cx="123" cy="159.5" rx="9" ry="8.5" fill="#0A7DC8"/>
<ellipse cx="146" cy="130.5" rx="9" ry="8.5" fill="#0A7DC8"/>
<ellipse cx="156" cy="132.5" rx="9" ry="8.5" fill="#0A7DC8"/>
<ellipse cx="149" cy="141.5" rx="9" ry="8.5" fill="#0A7DC8"/>
<ellipse cx="154" cy="139.5" rx="9" ry="8.5" fill="#0A7DC8"/>
<ellipse cx="159" cy="137.5" rx="9" ry="8.5" fill="#0A7DC8"/>
<ellipse cx="164" cy="135.5" rx="9" ry="8.5" fill="#0A7DC8"/>
<ellipse cx="169" cy="134.5" rx="9" ry="8.5" fill="#0A7DC8"/>
<ellipse cx="175" cy="133.5" rx="9" ry="8.5" fill="#0A7DC8"/>
<ellipse cx="179" cy="133.5" rx="9" ry="8.5" fill="#0A7DC8"/>
<ellipse cx="185" cy="133.5" rx="9" ry="8.5" fill="#0A7DC8"/>
<ellipse cx="108" cy="171.5" rx="9" ry="8.5" fill="#0A7DC8"/>
<ellipse cx="127" cy="155.5" rx="9" ry="8.5" fill="#0A7DC8"/>
<ellipse cx="131" cy="153.5" rx="9" ry="8.5" fill="#0A7DC8"/>
<ellipse cx="136" cy="149.5" rx="9" ry="8.5" fill="#0A7DC8"/>
<ellipse cx="141" cy="146.5" rx="9" ry="8.5" fill="#0A7DC8"/>
<ellipse cx="145" cy="143.5" rx="9" ry="8.5" fill="#0A7DC8"/>
<ellipse cx="129" cy="142.5" rx="9" ry="8.5" fill="#0A7DC8"/>
<ellipse cx="134" cy="131.5" rx="9" ry="8.5" fill="#0A7DC8"/>
<ellipse cx="189" cy="134.5" rx="9" ry="8.5" fill="#0A7DC8"/>
<ellipse cx="189" cy="134.5" rx="9" ry="8.5" fill="#0A7DC8"/>
<ellipse cx="194" cy="135.5" rx="9" ry="8.5" fill="#0A7DC8"/>
<ellipse cx="198" cy="136.5" rx="9" ry="8.5" fill="#0A7DC8"/>
<ellipse cx="218" cy="145.5" rx="9" ry="8.5" fill="#0A7DC8"/>
<ellipse cx="222" cy="148.5" rx="9" ry="8.5" fill="#0A7DC8"/>
<ellipse cx="227" cy="151.5" rx="9" ry="8.5" fill="#0A7DC8"/>
<ellipse cx="230" cy="153.5" rx="9" ry="8.5" fill="#0A7DC8"/>
<ellipse cx="234" cy="155.5" rx="9" ry="8.5" fill="#0A7DC8"/>
<ellipse cx="237" cy="157.5" rx="9" ry="8.5" fill="#0A7DC8"/>
<ellipse cx="242" cy="159.5" rx="9" ry="8.5" fill="#0A7DC8"/>
<ellipse cx="246" cy="160.5" rx="9" ry="8.5" fill="#0A7DC8"/>
<ellipse cx="250" cy="162.5" rx="9" ry="8.5" fill="#0A7DC8"/>
<ellipse cx="256" cy="163.5" rx="9" ry="8.5" fill="#0A7DC8"/>
<ellipse cx="261" cy="164.5" rx="9" ry="8.5" fill="#0A7DC8"/>
<ellipse cx="266" cy="165.5" rx="9" ry="8.5" fill="#0A7DC8"/>
<ellipse cx="271" cy="165.5" rx="9" ry="8.5" fill="#0A7DC8"/>
<ellipse cx="274" cy="165.5" rx="9" ry="8.5" fill="#0A7DC8"/>
<ellipse cx="277" cy="166.5" rx="9" ry="8.5" fill="#0A7DC8"/>
<ellipse cx="282" cy="166.5" rx="9" ry="8.5" fill="#0A7DC8"/>
<ellipse cx="288" cy="166.5" rx="9" ry="8.5" fill="#0A7DC8"/>
<ellipse cx="293" cy="166.5" rx="9" ry="8.5" fill="#0A7DC8"/>
<ellipse cx="297" cy="166.5" rx="9" ry="8.5" fill="#0A7DC8"/>
<ellipse cx="303" cy="165.5" rx="9" ry="8.5" fill="#0A7DC8"/>
<ellipse cx="307" cy="165.5" rx="9" ry="8.5" fill="#0A7DC8"/>
<ellipse cx="311" cy="165.5" rx="9" ry="8.5" fill="#0A7DC8"/>
<ellipse cx="315" cy="164.5" rx="9" ry="8.5" fill="#0A7DC8"/>
<ellipse cx="318" cy="164.5" rx="9" ry="8.5" fill="#0A7DC8"/>
<ellipse cx="323" cy="163.5" rx="9" ry="8.5" fill="#0A7DC8"/>
<ellipse cx="325" cy="163.5" rx="9" ry="8.5" fill="#0A7DC8"/>
<ellipse cx="329" cy="162.5" rx="9" ry="8.5" fill="#0A7DC8"/>
<ellipse cx="200.5" cy="143" rx="3.5" ry="3" fill="#0A7DC8"/>
<ellipse cx="202.5" cy="144" rx="3.5" ry="3" fill="#0A7DC8"/>
<ellipse cx="332" cy="157" rx="17" ry="14" fill="#0A7DC8"/>
<ellipse cx="338" cy="156" rx="17" ry="14" fill="#0A7DC8"/>
<ellipse cx="344" cy="155" rx="17" ry="14" fill="#0A7DC8"/>
<ellipse cx="349" cy="154" rx="17" ry="14" fill="#0A7DC8"/>
<ellipse cx="354" cy="153" rx="17" ry="14" fill="#0A7DC8"/>
<ellipse cx="358" cy="152" rx="17" ry="14" fill="#0A7DC8"/>
<ellipse cx="361" cy="152" rx="17" ry="14" fill="#0A7DC8"/>
<ellipse cx="366" cy="151" rx="17" ry="14" fill="#0A7DC8"/>
<ellipse cx="371" cy="150" rx="17" ry="14" fill="#0A7DC8"/>
<ellipse cx="376" cy="149" rx="17" ry="14" fill="#0A7DC8"/>
<ellipse cx="382" cy="147" rx="17" ry="14" fill="#0A7DC8"/>
<ellipse cx="386" cy="146" rx="17" ry="14" fill="#0A7DC8"/>
<ellipse cx="389" cy="146" rx="17" ry="14" fill="#0A7DC8"/>
<ellipse cx="395" cy="144" rx="17" ry="14" fill="#0A7DC8"/>
<ellipse cx="399" cy="143" rx="17" ry="14" fill="#0A7DC8"/>
<ellipse cx="403" cy="142" rx="17" ry="14" fill="#0A7DC8"/>
<ellipse cx="405" cy="142" rx="17" ry="14" fill="#0A7DC8"/>
<ellipse cx="410" cy="141" rx="17" ry="14" fill="#0A7DC8"/>
<ellipse cx="418" cy="139" rx="17" ry="14" fill="#0A7DC8"/>
<ellipse cx="425" cy="137" rx="17" ry="14" fill="#0A7DC8"/>
<ellipse cx="429" cy="136" rx="17" ry="14" fill="#0A7DC8"/>
<ellipse cx="433" cy="135" rx="17" ry="14" fill="#0A7DC8"/>
<ellipse cx="436" cy="134" rx="17" ry="14" fill="#0A7DC8"/>
<ellipse cx="440" cy="133" rx="17" ry="14" fill="#0A7DC8"/>
<ellipse cx="446" cy="132" rx="17" ry="14" fill="#0A7DC8"/>
<ellipse cx="453" cy="130" rx="17" ry="14" fill="#0A7DC8"/>
<ellipse cx="459" cy="128" rx="17" ry="14" fill="#0A7DC8"/>
<ellipse cx="463" cy="127" rx="17" ry="14" fill="#0A7DC8"/>
<ellipse cx="467" cy="126" rx="17" ry="14" fill="#0A7DC8"/>
<ellipse cx="471" cy="125" rx="17" ry="14" fill="#0A7DC8"/>
<ellipse cx="475" cy="124" rx="17" ry="14" fill="#0A7DC8"/>
<ellipse cx="479" cy="123" rx="17" ry="14" fill="#0A7DC8"/>
<ellipse cx="484" cy="122" rx="17" ry="14" fill="#0A7DC8"/>
<ellipse cx="491" cy="120" rx="17" ry="14" fill="#0A7DC8"/>
<ellipse cx="495" cy="119" rx="17" ry="14" fill="#0A7DC8"/>
<ellipse cx="500" cy="118" rx="17" ry="14" fill="#0A7DC8"/>
<ellipse cx="506" cy="116" rx="17" ry="14" fill="#0A7DC8"/>
<ellipse cx="510" cy="115" rx="17" ry="14" fill="#0A7DC8"/>
<ellipse cx="513" cy="114" rx="17" ry="14" fill="#0A7DC8"/>
<ellipse cx="516" cy="114" rx="17" ry="14" fill="#0A7DC8"/>
<ellipse cx="522" cy="112" rx="17" ry="14" fill="#0A7DC8"/>
<ellipse cx="527" cy="111" rx="17" ry="14" fill="#0A7DC8"/>
<ellipse cx="536" cy="109" rx="17" ry="14" fill="#0A7DC8"/>
<ellipse cx="543" cy="107" rx="17" ry="14" fill="#0A7DC8"/>
<ellipse cx="549" cy="106" rx="17" ry="14" fill="#0A7DC8"/>
<ellipse cx="557" cy="104" rx="17" ry="14" fill="#0A7DC8"/>
<ellipse cx="565" cy="102" rx="17" ry="14" fill="#0A7DC8"/>
<ellipse cx="571" cy="101" rx="17" ry="14" fill="#0A7DC8"/>
<ellipse cx="579" cy="99" rx="17" ry="14" fill="#0A7DC8"/>
<ellipse cx="586" cy="98" rx="17" ry="14" fill="#0A7DC8"/>
<ellipse cx="556" cy="88" rx="17" ry="14" fill="#0A7DC8"/>
<ellipse cx="379" cy="124" rx="17" ry="14" fill="#0A7DC8"/>
<ellipse cx="596.5" cy="99" rx="11.5" ry="11" fill="#0A7DC8"/>
<ellipse cx="602.5" cy="98" rx="11.5" ry="11" fill="#0A7DC8"/>
<ellipse cx="608.5" cy="97" rx="11.5" ry="11" fill="#0A7DC8"/>
<ellipse cx="615.5" cy="95" rx="11.5" ry="11" fill="#0A7DC8"/>
<ellipse cx="619.5" cy="95" rx="11.5" ry="11" fill="#0A7DC8"/>
<ellipse cx="626.5" cy="94" rx="11.5" ry="11" fill="#0A7DC8"/>
<ellipse cx="631.5" cy="93" rx="11.5" ry="11" fill="#0A7DC8"/>
<ellipse cx="637.5" cy="92" rx="11.5" ry="11" fill="#0A7DC8"/>
<ellipse cx="642.5" cy="91" rx="11.5" ry="11" fill="#0A7DC8"/>
<ellipse cx="646.5" cy="91" rx="11.5" ry="11" fill="#0A7DC8"/>
<ellipse cx="653.5" cy="90" rx="11.5" ry="11" fill="#0A7DC8"/>
<ellipse cx="659.5" cy="89" rx="11.5" ry="11" fill="#0A7DC8"/>
<ellipse cx="664.5" cy="89" rx="11.5" ry="11" fill="#0A7DC8"/>
<ellipse cx="670.5" cy="88" rx="11.5" ry="11" fill="#0A7DC8"/>
<ellipse cx="675.5" cy="88" rx="11.5" ry="11" fill="#0A7DC8"/>
<ellipse cx="681.5" cy="88" rx="11.5" ry="11" fill="#0A7DC8"/>
<ellipse cx="688.5" cy="87" rx="11.5" ry="11" fill="#0A7DC8"/>
<ellipse cx="692.5" cy="87" rx="11.5" ry="11" fill="#0A7DC8"/>
<ellipse cx="697.5" cy="87" rx="11.5" ry="11" fill="#0A7DC8"/>
<ellipse cx="702.5" cy="87" rx="11.5" ry="11" fill="#0A7DC8"/>
<ellipse cx="708.5" cy="87" rx="11.5" ry="11" fill="#0A7DC8"/>
<ellipse cx="712.5" cy="87" rx="11.5" ry="11" fill="#0A7DC8"/>
<ellipse cx="717.5" cy="87" rx="11.5" ry="11" fill="#0A7DC8"/>
<ellipse cx="721.5" cy="87" rx="11.5" ry="11" fill="#0A7DC8"/>
<ellipse cx="726.5" cy="88" rx="11.5" ry="11" fill="#0A7DC8"/>
<ellipse cx="733.5" cy="88" rx="11.5" ry="11" fill="#0A7DC8"/>
<ellipse cx="736.5" cy="88" rx="11.5" ry="11" fill="#0A7DC8"/>
<ellipse cx="739.5" cy="89" rx="11.5" ry="11" fill="#0A7DC8"/>
<ellipse cx="745.5" cy="90" rx="11.5" ry="11" fill="#0A7DC8"/>
<ellipse cx="753.5" cy="91" rx="11.5" ry="11" fill="#0A7DC8"/>
<ellipse cx="759.5" cy="92" rx="11.5" ry="11" fill="#0A7DC8"/>
<ellipse cx="765.5" cy="93" rx="11.5" ry="11" fill="#0A7DC8"/>
<ellipse cx="770.5" cy="94" rx="11.5" ry="11" fill="#0A7DC8"/>
<ellipse cx="774.5" cy="95" rx="11.5" ry="11" fill="#0A7DC8"/>
<ellipse cx="778.5" cy="97" rx="11.5" ry="11" fill="#0A7DC8"/>
<ellipse cx="784.5" cy="98" rx="11.5" ry="11" fill="#0A7DC8"/>
<ellipse cx="788.5" cy="100" rx="11.5" ry="11" fill="#0A7DC8"/>
<ellipse cx="794.5" cy="102" rx="11.5" ry="11" fill="#0A7DC8"/>
<ellipse cx="800.5" cy="104" rx="11.5" ry="11" fill="#0A7DC8"/>
<ellipse cx="804.5" cy="106" rx="11.5" ry="11" fill="#0A7DC8"/>
<ellipse cx="809.5" cy="109" rx="11.5" ry="11" fill="#0A7DC8"/>
<ellipse cx="815.5" cy="112" rx="11.5" ry="11" fill="#0A7DC8"/>
<ellipse cx="822.5" cy="116" rx="11.5" ry="11" fill="#0A7DC8"/>
<ellipse cx="828.5" cy="120" rx="11.5" ry="11" fill="#0A7DC8"/>
<ellipse cx="833.5" cy="124" rx="11.5" ry="11" fill="#0A7DC8"/>
<ellipse cx="839.5" cy="128" rx="11.5" ry="11" fill="#0A7DC8"/>
<ellipse cx="844.5" cy="133" rx="11.5" ry="11" fill="#0A7DC8"/>
<ellipse cx="849.5" cy="138" rx="11.5" ry="11" fill="#0A7DC8"/>
<ellipse cx="854.5" cy="143" rx="11.5" ry="11" fill="#0A7DC8"/>
<ellipse cx="858.5" cy="147" rx="11.5" ry="11" fill="#0A7DC8"/>
<ellipse cx="861.5" cy="151" rx="11.5" ry="11" fill="#0A7DC8"/>
<ellipse cx="864.5" cy="155" rx="11.5" ry="11" fill="#0A7DC8"/>
<ellipse cx="869.5" cy="145" rx="11.5" ry="11" fill="#0A7DC8"/>
<ellipse cx="868.5" cy="161" rx="11.5" ry="11" fill="#0A7DC8"/>
<ellipse cx="872.5" cy="167" rx="11.5" ry="11" fill="#0A7DC8"/>
<ellipse cx="875.5" cy="172" rx="11.5" ry="11" fill="#0A7DC8"/>
<ellipse cx="878.5" cy="177" rx="11.5" ry="11" fill="#0A7DC8"/>
<ellipse cx="880.5" cy="181" rx="11.5" ry="11" fill="#0A7DC8"/>
<ellipse cx="882.5" cy="185" rx="11.5" ry="11" fill="#0A7DC8"/>
<ellipse cx="885.5" cy="189" rx="11.5" ry="11" fill="#0A7DC8"/>
<ellipse cx="887.5" cy="193" rx="11.5" ry="11" fill="#0A7DC8"/>
<ellipse cx="892.5" cy="199" rx="11.5" ry="11" fill="#0A7DC8"/>
<ellipse cx="896.5" cy="203" rx="11.5" ry="11" fill="#0A7DC8"/>
<ellipse cx="900.5" cy="207" rx="11.5" ry="11" fill="#0A7DC8"/>
<ellipse cx="904.5" cy="210" rx="11.5" ry="11" fill="#0A7DC8"/>
<ellipse cx="906.5" cy="212" rx="11.5" ry="11" fill="#0A7DC8"/>
<ellipse cx="909.5" cy="214" rx="11.5" ry="11" fill="#0A7DC8"/>
<ellipse cx="913.5" cy="217" rx="11.5" ry="11" fill="#0A7DC8"/>
<ellipse cx="919.5" cy="221" rx="11.5" ry="11" fill="#0A7DC8"/>
<ellipse cx="925.5" cy="224" rx="11.5" ry="11" fill="#0A7DC8"/>
<ellipse cx="932.5" cy="227" rx="11.5" ry="11" fill="#0A7DC8"/>
<ellipse cx="938.5" cy="229" rx="11.5" ry="11" fill="#0A7DC8"/>
<ellipse cx="943.5" cy="231" rx="11.5" ry="11" fill="#0A7DC8"/>
<ellipse cx="949.5" cy="233" rx="11.5" ry="11" fill="#0A7DC8"/>
<ellipse cx="957.5" cy="235" rx="11.5" ry="11" fill="#0A7DC8"/>
<ellipse cx="964.5" cy="236" rx="11.5" ry="11" fill="#0A7DC8"/>
<ellipse cx="970.5" cy="237" rx="11.5" ry="11" fill="#0A7DC8"/>
<ellipse cx="976.5" cy="238" rx="11.5" ry="11" fill="#0A7DC8"/>
<ellipse cx="982.5" cy="239" rx="11.5" ry="11" fill="#0A7DC8"/>
<ellipse cx="989.5" cy="239" rx="11.5" ry="11" fill="#0A7DC8"/>
<ellipse cx="992.5" cy="239" rx="11.5" ry="11" fill="#0A7DC8"/>
<ellipse cx="1005.5" cy="241.5" rx="29.5" ry="9.5" fill="#0A7DC8"/>
<ellipse cx="1036.5" cy="240.5" rx="29.5" ry="9.5" fill="#0A7DC8"/>
<ellipse cx="1049.5" cy="239.5" rx="29.5" ry="9.5" fill="#0A7DC8"/>
<ellipse cx="1067.5" cy="237.5" rx="29.5" ry="9.5" fill="#0A7DC8"/>
<ellipse cx="1080.5" cy="234.5" rx="29.5" ry="9.5" fill="#0A7DC8"/>
<ellipse cx="1087.5" cy="233.5" rx="29.5" ry="9.5" fill="#0A7DC8"/>
<ellipse cx="1097.5" cy="231.5" rx="29.5" ry="9.5" fill="#0A7DC8"/>
<ellipse cx="1104.5" cy="230.5" rx="29.5" ry="9.5" fill="#0A7DC8"/>
<ellipse cx="1117.5" cy="227.5" rx="29.5" ry="9.5" fill="#0A7DC8"/>
<ellipse cx="1125.5" cy="225.5" rx="29.5" ry="9.5" fill="#0A7DC8"/>
<ellipse cx="1135.5" cy="223.5" rx="29.5" ry="9.5" fill="#0A7DC8"/>
<ellipse cx="1147.5" cy="220.5" rx="29.5" ry="9.5" fill="#0A7DC8"/>
<ellipse cx="1158.5" cy="217.5" rx="29.5" ry="9.5" fill="#0A7DC8"/>
<ellipse cx="1171.5" cy="213.5" rx="29.5" ry="9.5" fill="#0A7DC8"/>
<ellipse cx="1181.5" cy="210.5" rx="29.5" ry="9.5" fill="#0A7DC8"/>
<ellipse cx="1191.5" cy="207.5" rx="29.5" ry="9.5" fill="#0A7DC8"/>
<ellipse cx="1200.5" cy="204.5" rx="29.5" ry="9.5" fill="#0A7DC8"/>
<ellipse cx="1207.5" cy="202.5" rx="29.5" ry="9.5" fill="#0A7DC8"/>
<ellipse cx="1213.5" cy="200.5" rx="29.5" ry="9.5" fill="#0A7DC8"/>
<ellipse cx="1220.5" cy="198.5" rx="29.5" ry="9.5" fill="#0A7DC8"/>
<ellipse cx="1229.5" cy="195.5" rx="29.5" ry="9.5" fill="#0A7DC8"/>
<ellipse cx="1240.5" cy="191.5" rx="29.5" ry="9.5" fill="#0A7DC8"/>
<ellipse cx="1248.5" cy="188.5" rx="29.5" ry="9.5" fill="#0A7DC8"/>
<ellipse cx="1256.5" cy="186.5" rx="29.5" ry="9.5" fill="#0A7DC8"/>
<ellipse cx="1266.5" cy="182.5" rx="29.5" ry="9.5" fill="#0A7DC8"/>
<ellipse cx="1275.5" cy="179.5" rx="29.5" ry="9.5" fill="#0A7DC8"/>
<ellipse cx="1282.5" cy="176.5" rx="29.5" ry="9.5" fill="#0A7DC8"/>
<ellipse cx="1287.5" cy="174.5" rx="29.5" ry="9.5" fill="#0A7DC8"/>
<ellipse cx="1293.5" cy="172.5" rx="29.5" ry="9.5" fill="#0A7DC8"/>
<ellipse cx="1300.5" cy="169.5" rx="29.5" ry="9.5" fill="#0A7DC8"/>
<ellipse cx="1307.5" cy="166.5" rx="29.5" ry="9.5" fill="#0A7DC8"/>
<ellipse cx="1315.5" cy="163.5" rx="29.5" ry="9.5" fill="#0A7DC8"/>
<ellipse cx="1321.5" cy="161.5" rx="29.5" ry="9.5" fill="#0A7DC8"/>
<ellipse cx="1328.5" cy="158.5" rx="29.5" ry="9.5" fill="#0A7DC8"/>
<ellipse cx="1336.5" cy="155.5" rx="29.5" ry="9.5" fill="#0A7DC8"/>
<ellipse cx="1342.5" cy="152.5" rx="29.5" ry="9.5" fill="#0A7DC8"/>
<ellipse cx="1350.5" cy="149.5" rx="29.5" ry="9.5" fill="#0A7DC8"/>
<ellipse cx="1359.5" cy="145.5" rx="29.5" ry="9.5" fill="#0A7DC8"/>
<ellipse cx="1366.5" cy="142.5" rx="29.5" ry="9.5" fill="#0A7DC8"/>
<ellipse cx="1374.5" cy="139.5" rx="29.5" ry="9.5" fill="#0A7DC8"/>
<ellipse cx="1381.5" cy="136.5" rx="29.5" ry="9.5" fill="#0A7DC8"/>
<ellipse cx="1389.5" cy="132.5" rx="29.5" ry="9.5" fill="#0A7DC8"/>
<ellipse cx="1397.5" cy="129.5" rx="29.5" ry="9.5" fill="#0A7DC8"/>
<ellipse cx="1406.5" cy="125.5" rx="29.5" ry="9.5" fill="#0A7DC8"/>
<ellipse cx="1414.5" cy="121.5" rx="29.5" ry="9.5" fill="#0A7DC8"/>
<ellipse cx="1421.5" cy="118.5" rx="29.5" ry="9.5" fill="#0A7DC8"/>
<ellipse cx="1428.5" cy="115.5" rx="29.5" ry="9.5" fill="#0A7DC8"/>
<ellipse cx="1436.5" cy="111.5" rx="29.5" ry="9.5" fill="#0A7DC8"/>
<ellipse cx="1441.5" cy="109.5" rx="29.5" ry="9.5" fill="#0A7DC8"/>
<ellipse cx="1448.5" cy="106.5" rx="29.5" ry="9.5" fill="#0A7DC8"/>
<ellipse cx="1455.5" cy="102.5" rx="29.5" ry="9.5" fill="#0A7DC8"/>
<ellipse cx="1460.5" cy="100.5" rx="29.5" ry="9.5" fill="#0A7DC8"/>
<ellipse cx="1466.5" cy="97.5" rx="29.5" ry="9.5" fill="#0A7DC8"/>
<ellipse cx="1472.5" cy="94.5" rx="29.5" ry="9.5" fill="#0A7DC8"/>
<ellipse cx="1476.5" cy="93.5" rx="29.5" ry="9.5" fill="#0A7DC8"/>
<ellipse cx="1408.5" cy="97" rx="46.5" ry="19" fill="#0A7DC8"/>
<ellipse cx="1032" cy="224.5" rx="53" ry="11.5" fill="#0A7DC8"/>
<ellipse cx="1021.5" cy="241.5" rx="29.5" ry="9.5" fill="#0A7DC8"/>
<ellipse cx="944.083" cy="205.935" rx="54.7018" ry="19.5538" transform="rotate(25.1319 944.083 205.935)" fill="#0A7DC8"/>
<ellipse cx="797.5" cy="94" rx="11.5" ry="11" fill="#0A7DC8"/>
<ellipse cx="820.5" cy="100.5" rx="16.5" ry="15.5" fill="#0A7DC8"/>
</svg>
